<svg width="20" height="13" viewBox="0 0 20 13" fill="none" xmlns="http://www.w3.org/2000/svg">
<path d="M12.97 12.9L10.41 6.87C9.39 8.86 8.27 10.95 7.31 12.9C7.3 12.91 6.84 12.9 6.84 12.9C5.37 9.45 3.85 6.05 2.37 2.63C2.03 1.79 0.83 0.45 0 0.45V0H5.06V0.45C4.46 0.45 3.44 0.85 3.7 1.5C4.42 3.04 6.94 9.01 7.63 10.53C8.1 9.59 9.43 7.11 10 6.06C9.55 5.18 8.13 1.88 7.71 1.06C7.39 0.52 6.58 0.45 5.96 0.45C5.96 0.3 5.97 0.2 5.96 0.00999975L10.42 0.02V0.42C9.81 0.45 9.24 0.66 9.5 1.24C10.1 2.48 10.45 3.37 11 4.52C11.17 4.18 12.07 2.33 12.5 1.36C12.76 0.71 12.37 0.45 11.29 0.45C11.3 0.33 11.3 0.12 11.3 0.02C12.69 0.00999998 14.78 0.01 15.15 0V0.42C14.44 0.45 13.71 0.83 13.33 1.41L11.5 5.25C11.68 5.76 13.46 9.71 13.65 10.15L17.5 1.32C17.2 0.6 16.34 0.45 16 0.45V0L20 0.0299997V0.45C19.12 0.45 18.57 0.95 18.25 1.7C17.45 3.49 15 9.19 13.4 12.9H12.97V12.9Z" fill="white"/>
</svg>
