<svg width="29" height="20" viewBox="0 0 29 20" fill="none" xmlns="http://www.w3.org/2000/svg">
<path d="M27.4108 3.06C27.2514 2.46804 26.9394 1.92831 26.5059 1.49483C26.0724 1.06136 25.5327 0.749337 24.9408 0.59C22.7608 1.78814e-07 14.0008 0 14.0008 0C14.0008 0 5.24075 1.78814e-07 3.06075 0.59C2.46879 0.749337 1.92906 1.06136 1.49559 1.49483C1.06211 1.92831 0.750089 2.46804 0.590752 3.06C0.183698 5.28327 -0.0138345 7.53982 0.000752436 9.8C-0.0138345 12.0602 0.183698 14.3167 0.590752 16.54C0.750089 17.132 1.06211 17.6717 1.49559 18.1052C1.92906 18.5386 2.46879 18.8507 3.06075 19.01C5.24075 19.6 14.0008 19.6 14.0008 19.6C14.0008 19.6 22.7608 19.6 24.9408 19.01C25.5327 18.8507 26.0724 18.5386 26.5059 18.1052C26.9394 17.6717 27.2514 17.132 27.4108 16.54C27.8178 14.3167 28.0153 12.0602 28.0008 9.8C28.0153 7.53982 27.8178 5.28327 27.4108 3.06V3.06ZM11.2008 14V5.6L18.4708 9.8L11.2008 14Z" fill="white"/>
</svg>
