<svg xmlns="http://www.w3.org/2000/svg" width="32" height="32" viewBox="0 0 8.467 8.467">
	<path d="m 1.3209785,289.06066 c -0.4353754,0 -0.79362046,0.35826 -0.79362046,0.79363 v 5.82472 c 0,0.43538 0.35825104,0.79363 0.79362046,0.79363 H 7.146205 c 0.4353678,0 0.7931037,-0.35825 0.7931037,-0.79363 v -5.82472 c 0,-0.43537 -0.3577311,-0.79363 -0.7931037,-0.79363 z m 0,0.52945 h 2.6476424 v 2.91183 H 1.0573001 v -2.64765 c 0,-0.15121 0.1124488,-0.26418 0.2636784,-0.26418 z m 3.1770675,0 h 2.648159 c 0.1512281,0 0.2636788,0.11297 0.2636788,0.26418 v 2.64765 H 4.498046 Z m -1.988963,0.65866 c -0.1463967,8.8e-4 -0.2638333,0.12143 -0.2621275,0.26784 v 0.39656 H 1.8504038 c -0.3608629,-0.007 -0.3608629,0.53742 0,0.52941 h 0.3965517 v 0.39706 c -0.008,0.36086 0.5374245,0.36086 0.5294251,0 v -0.39706 h 0.3991367 c 0.3608629,0.007 0.3608629,-0.53742 0,-0.52941 H 2.7763806 v -0.39656 c 0.00174,-0.14843 -0.1188782,-0.26928 -0.2672976,-0.26784 z m 2.7825836,0.6644 c -0.3608628,-0.007 -0.3608628,0.53742 0,0.52941 h 1.3245965 c 0.3608627,0.007 0.3608627,-0.53742 0,-0.52941 z m -4.2343665,2.1182 h 2.9113208 v 2.91183 H 1.3209785 c -0.1512357,0 -0.2636784,-0.11296 -0.2636784,-0.26419 z m 3.4407459,0 h 2.9118378 v 2.64764 c 0,0.15123 -0.1124457,0.26419 -0.2636788,0.26419 H 4.498046 Z m 0.7682868,0.52943 a 0.26527362,0.26527362 0 0 0 0.025333,0.52994 h 1.3245966 a 0.26497101,0.26497101 0 0 0 0,-0.52994 H 5.2916657 a 0.26473902,0.26473902 0 0 0 -0.025333,0 z m -3.2246329,0.0591 c -0.2376831,5e-4 -0.3543424,0.28967 -0.183541,0.45497 l 0.2807401,0.28074 -0.2807401,0.28021 c -0.2604728,0.24879 0.1230744,0.63446 0.3732861,0.37537 l 0.281257,-0.28178 0.2817741,0.28178 c 0.2500788,0.27024 0.644736,-0.12714 0.3727689,-0.37537 l -0.2802231,-0.28024 0.2802231,-0.28074 c 0.173694,-0.1679 0.050193,-0.46163 -0.1912962,-0.45496 -0.068591,0.002 -0.1336548,0.0309 -0.1814727,0.0801 l -0.2817741,0.28119 -0.281257,-0.28125 c -0.049838,-0.0512 -0.118272,-0.0801 -0.1897451,-0.0801 z m 3.2246329,1.00038 a 0.26508371,0.26508371 0 0 0 0.025333,0.52941 h 1.3245966 a 0.26477922,0.26477922 0 1 0 0,-0.52941 H 5.2916657 a 0.26473902,0.26473902 0 0 0 -0.025333,0 z" color="#000" font-family="sans-serif" font-weight="400" overflow="visible" paint-order="stroke fill markers" transform="translate(0 -288.533)" style="line-height:normal;font-variant-ligatures:normal;font-variant-position:normal;font-variant-caps:normal;font-variant-numeric:normal;font-variant-alternates:normal;font-feature-settings:normal;text-indent:0;text-align:start;text-decoration-line:none;text-decoration-style:solid;text-decoration-color:#000;text-transform:none;text-orientation:mixed;shape-padding:0;isolation:auto;mix-blend-mode:normal"/>
</svg>